<svg height="5550" width="720" xmlns="http://www.w3.org/2000/svg">
<rect height="5550" fill="#555" width="720"></rect>
<text fill="#7f7" font-family="Courier New" font-size="12" xml:space="preserve">
<tspan x="10" y="26">50 megabytes installed</tspan>
<tspan x="10" y="42"></tspan>
<tspan x="10" y="58">node_modules</tspan>
<tspan x="10" y="74">└─┬ atlasboard@1.1.3 </tspan>
<tspan x="10" y="90">  ├── async@1.5.2 </tspan>
<tspan x="10" y="106">  ├─┬ body-parser@1.17.1 </tspan>
<tspan x="10" y="122">  │ ├── bytes@2.4.0 </tspan>
<tspan x="10" y="138">  │ ├── content-type@1.0.2 </tspan>
<tspan x="10" y="154">  │ ├── debug@2.6.1 </tspan>
<tspan x="10" y="170">  │ ├── depd@1.1.0 </tspan>
<tspan x="10" y="186">  │ ├── http-errors@1.6.1 </tspan>
<tspan x="10" y="202">  │ ├── iconv-lite@0.4.15 </tspan>
<tspan x="10" y="218">  │ ├─┬ on-finished@2.3.0 </tspan>
<tspan x="10" y="234">  │ │ └── ee-first@1.1.1 </tspan>
<tspan x="10" y="250">  │ ├── qs@6.4.0 </tspan>
<tspan x="10" y="266">  │ ├─┬ raw-body@2.2.0 </tspan>
<tspan x="10" y="282">  │ │ └── unpipe@1.0.0 </tspan>
<tspan x="10" y="298">  │ └─┬ type-is@1.6.15 </tspan>
<tspan x="10" y="314">  │   └── media-typer@0.3.0 </tspan>
<tspan x="10" y="330">  ├─┬ cheerio@0.19.0 </tspan>
<tspan x="10" y="346">  │ ├─┬ css-select@1.0.0 </tspan>
<tspan x="10" y="362">  │ │ ├── boolbase@1.0.0 </tspan>
<tspan x="10" y="378">  │ │ ├── css-what@1.0.0 </tspan>
<tspan x="10" y="394">  │ │ ├── domutils@1.4.3 </tspan>
<tspan x="10" y="410">  │ │ └── nth-check@1.0.1 </tspan>
<tspan x="10" y="426">  │ ├─┬ dom-serializer@0.1.0 </tspan>
<tspan x="10" y="442">  │ │ └── domelementtype@1.1.3 </tspan>
<tspan x="10" y="458">  │ ├── entities@1.1.1 </tspan>
<tspan x="10" y="474">  │ ├─┬ htmlparser2@3.8.3 </tspan>
<tspan x="10" y="490">  │ │ ├── domelementtype@1.3.0 </tspan>
<tspan x="10" y="506">  │ │ ├── domhandler@2.3.0 </tspan>
<tspan x="10" y="522">  │ │ ├── domutils@1.5.1 </tspan>
<tspan x="10" y="538">  │ │ ├── entities@1.0.0 </tspan>
<tspan x="10" y="554">  │ │ └─┬ readable-stream@1.1.14 </tspan>
<tspan x="10" y="570">  │ │   ├── core-util-is@1.0.2 </tspan>
<tspan x="10" y="586">  │ │   └── string_decoder@0.10.31 </tspan>
<tspan x="10" y="602">  │ └── lodash@3.10.1 </tspan>
<tspan x="10" y="618">  ├── colors@1.1.2 </tspan>
<tspan x="10" y="634">  ├─┬ compression@1.6.2 </tspan>
<tspan x="10" y="650">  │ ├─┬ accepts@1.3.3 </tspan>
<tspan x="10" y="666">  │ │ └── negotiator@0.6.1 </tspan>
<tspan x="10" y="682">  │ ├── bytes@2.3.0 </tspan>
<tspan x="10" y="698">  │ ├─┬ compressible@2.0.10 </tspan>
<tspan x="10" y="714">  │ │ └── mime-db@1.27.0 </tspan>
<tspan x="10" y="730">  │ ├─┬ debug@2.2.0 </tspan>
<tspan x="10" y="746">  │ │ └── ms@0.7.1 </tspan>
<tspan x="10" y="762">  │ ├── on-headers@1.0.1 </tspan>
<tspan x="10" y="778">  │ └── vary@1.1.1 </tspan>
<tspan x="10" y="794">  ├─┬ connect-assets@5.0.1 </tspan>
<tspan x="10" y="810">  │ ├─┬ argparse@1.0.2 </tspan>
<tspan x="10" y="826">  │ │ └── sprintf-js@1.0.3 </tspan>
<tspan x="10" y="842">  │ ├─┬ csswring@3.0.5 </tspan>
<tspan x="10" y="858">  │ │ ├─┬ fs-extra@0.18.4 </tspan>
<tspan x="10" y="874">  │ │ │ ├─┬ graceful-fs@3.0.11 </tspan>
<tspan x="10" y="890">  │ │ │ │ └── natives@1.1.0 </tspan>
<tspan x="10" y="906">  │ │ │ ├─┬ jsonfile@2.4.0 </tspan>
<tspan x="10" y="922">  │ │ │ │ └── graceful-fs@4.1.11 </tspan>
<tspan x="10" y="938">  │ │ │ └── rimraf@2.6.1 </tspan>
<tspan x="10" y="954">  │ │ ├── minimist@1.2.0 </tspan>
<tspan x="10" y="970">  │ │ ├── onecolor@2.5.0 </tspan>
<tspan x="10" y="986">  │ │ └─┬ postcss@4.1.16 </tspan>
<tspan x="10" y="1002">  │ │   ├── es6-promise@2.3.0 </tspan>
<tspan x="10" y="1018">  │ │   ├── js-base64@2.1.9 </tspan>
<tspan x="10" y="1034">  │ │   └── source-map@0.4.4 </tspan>
<tspan x="10" y="1050">  │ ├── mime@1.3.4 </tspan>
<tspan x="10" y="1066">  │ ├─┬ mincer@1.3.0 </tspan>
<tspan x="10" y="1082">  │ │ ├─┬ argparse@0.1.16 </tspan>
<tspan x="10" y="1098">  │ │ │ ├── underscore@1.7.0 </tspan>
<tspan x="10" y="1114">  │ │ │ └── underscore.string@2.4.0 </tspan>
<tspan x="10" y="1130">  │ │ ├─┬ fs-tools@0.2.11 </tspan>
<tspan x="10" y="1146">  │ │ │ ├── async@0.2.10 </tspan>
<tspan x="10" y="1162">  │ │ │ └── lodash@2.4.2 </tspan>
<tspan x="10" y="1178">  │ │ ├── hike@1.0.2 </tspan>
<tspan x="10" y="1194">  │ │ ├── lodash@2.4.2 </tspan>
<tspan x="10" y="1210">  │ │ ├── mimoza@1.0.0 </tspan>
<tspan x="10" y="1226">  │ │ ├── pako@0.2.9 </tspan>
<tspan x="10" y="1242">  │ │ ├── shellwords@0.1.0 </tspan>
<tspan x="10" y="1258">  │ │ └── source-map@0.1.43 </tspan>
<tspan x="10" y="1274">  │ └─┬ uglify-js@2.4.23 </tspan>
<tspan x="10" y="1290">  │   ├── async@0.2.10 </tspan>
<tspan x="10" y="1306">  │   ├── source-map@0.1.34 </tspan>
<tspan x="10" y="1322">  │   ├── uglify-to-browserify@1.0.2 </tspan>
<tspan x="10" y="1338">  │   └─┬ yargs@3.5.4 </tspan>
<tspan x="10" y="1354">  │     ├── camelcase@1.2.1 </tspan>
<tspan x="10" y="1370">  │     ├── decamelize@1.2.0 </tspan>
<tspan x="10" y="1386">  │     └── window-size@0.1.0 </tspan>
<tspan x="10" y="1402">  ├─┬ css@2.2.1 </tspan>
<tspan x="10" y="1418">  │ ├── inherits@2.0.3 </tspan>
<tspan x="10" y="1434">  │ ├─┬ source-map@0.1.43 </tspan>
<tspan x="10" y="1450">  │ │ └── amdefine@1.0.1 </tspan>
<tspan x="10" y="1466">  │ ├─┬ source-map-resolve@0.3.1 </tspan>
<tspan x="10" y="1482">  │ │ ├── atob@1.1.3 </tspan>
<tspan x="10" y="1498">  │ │ ├── resolve-url@0.2.1 </tspan>
<tspan x="10" y="1514">  │ │ └── source-map-url@0.3.0 </tspan>
<tspan x="10" y="1530">  │ └── urix@0.1.0 </tspan>
<tspan x="10" y="1546">  ├─┬ debug@2.6.3 </tspan>
<tspan x="10" y="1562">  │ └── ms@0.7.2 </tspan>
<tspan x="10" y="1578">  ├── ejs@2.3.3 </tspan>
<tspan x="10" y="1594">  ├─┬ errorhandler@1.5.0 </tspan>
<tspan x="10" y="1610">  │ └── escape-html@1.0.3 </tspan>
<tspan x="10" y="1626">  ├─┬ express@4.15.2 </tspan>
<tspan x="10" y="1642">  │ ├── array-flatten@1.1.1 </tspan>
<tspan x="10" y="1658">  │ ├── content-disposition@0.5.2 </tspan>
<tspan x="10" y="1674">  │ ├── cookie@0.3.1 </tspan>
<tspan x="10" y="1690">  │ ├── cookie-signature@1.0.6 </tspan>
<tspan x="10" y="1706">  │ ├── debug@2.6.1 </tspan>
<tspan x="10" y="1722">  │ ├── encodeurl@1.0.1 </tspan>
<tspan x="10" y="1738">  │ ├── etag@1.8.0 </tspan>
<tspan x="10" y="1754">  │ ├── finalhandler@1.0.1 </tspan>
<tspan x="10" y="1770">  │ ├── fresh@0.5.0 </tspan>
<tspan x="10" y="1786">  │ ├── merge-descriptors@1.0.1 </tspan>
<tspan x="10" y="1802">  │ ├── methods@1.1.2 </tspan>
<tspan x="10" y="1818">  │ ├── parseurl@1.3.1 </tspan>
<tspan x="10" y="1834">  │ ├── path-to-regexp@0.1.7 </tspan>
<tspan x="10" y="1850">  │ ├─┬ proxy-addr@1.1.4 </tspan>
<tspan x="10" y="1866">  │ │ ├── forwarded@0.1.0 </tspan>
<tspan x="10" y="1882">  │ │ └── ipaddr.js@1.3.0 </tspan>
<tspan x="10" y="1898">  │ ├── range-parser@1.2.0 </tspan>
<tspan x="10" y="1914">  │ ├─┬ send@0.15.1 </tspan>
<tspan x="10" y="1930">  │ │ ├── debug@2.6.1 </tspan>
<tspan x="10" y="1946">  │ │ └── destroy@1.0.4 </tspan>
<tspan x="10" y="1962">  │ ├── serve-static@1.12.1 </tspan>
<tspan x="10" y="1978">  │ ├── setprototypeof@1.0.3 </tspan>
<tspan x="10" y="1994">  │ ├── statuses@1.3.1 </tspan>
<tspan x="10" y="2010">  │ └── utils-merge@1.0.0 </tspan>
<tspan x="10" y="2026">  ├─┬ hardhat@0.0.7 </tspan>
<tspan x="10" y="2042">  │ ├── async@0.1.22 </tspan>
<tspan x="10" y="2058">  │ ├── consolidate@0.3.1 </tspan>
<tspan x="10" y="2074">  │ ├─┬ dive@0.2.0 </tspan>
<tspan x="10" y="2090">  │ │ └── append@0.1.1 </tspan>
<tspan x="10" y="2106">  │ ├─┬ fs-extra@0.1.3 </tspan>
<tspan x="10" y="2122">  │ │ ├── ncp@0.2.7 </tspan>
<tspan x="10" y="2138">  │ │ └── rimraf@1.0.9 </tspan>
<tspan x="10" y="2154">  │ └── mkdirp@0.3.5 </tspan>
<tspan x="10" y="2170">  ├─┬ method-override@2.3.5 </tspan>
<tspan x="10" y="2186">  │ ├─┬ debug@2.2.0 </tspan>
<tspan x="10" y="2202">  │ │ └── ms@0.7.1 </tspan>
<tspan x="10" y="2218">  │ └── vary@1.0.1 </tspan>
<tspan x="10" y="2234">  ├─┬ mkdirp@0.5.1 </tspan>
<tspan x="10" y="2250">  │ └── minimist@0.0.8 </tspan>
<tspan x="10" y="2266">  ├── moment@2.18.1 </tspan>
<tspan x="10" y="2282">  ├─┬ morgan@1.8.1 </tspan>
<tspan x="10" y="2298">  │ ├── basic-auth@1.1.0 </tspan>
<tspan x="10" y="2314">  │ └── debug@2.6.1 </tspan>
<tspan x="10" y="2330">  ├─┬ nib@1.1.2 </tspan>
<tspan x="10" y="2346">  │ └─┬ stylus@0.54.5 </tspan>
<tspan x="10" y="2362">  │   ├── glob@7.0.6 </tspan>
<tspan x="10" y="2378">  │   └── source-map@0.1.43 </tspan>
<tspan x="10" y="2394">  ├─┬ nock@2.18.2 </tspan>
<tspan x="10" y="2410">  │ ├─┬ chai@3.5.0 </tspan>
<tspan x="10" y="2426">  │ │ ├── assertion-error@1.0.2 </tspan>
<tspan x="10" y="2442">  │ │ ├─┬ deep-eql@0.1.3 </tspan>
<tspan x="10" y="2458">  │ │ │ └── type-detect@0.1.1 </tspan>
<tspan x="10" y="2474">  │ │ └── type-detect@1.0.0 </tspan>
<tspan x="10" y="2490">  │ ├─┬ debug@1.0.4 </tspan>
<tspan x="10" y="2506">  │ │ └── ms@0.6.2 </tspan>
<tspan x="10" y="2522">  │ ├── deep-equal@1.0.1 </tspan>
<tspan x="10" y="2538">  │ ├── lodash@2.4.1 </tspan>
<tspan x="10" y="2554">  │ └── propagate@0.3.1 </tspan>
<tspan x="10" y="2570">  ├─┬ optimist@0.3.7 </tspan>
<tspan x="10" y="2586">  │ └── wordwrap@0.0.2 </tspan>
<tspan x="10" y="2602">  ├─┬ pg@4.3.0 </tspan>
<tspan x="10" y="2618">  │ ├── buffer-writer@1.0.0 </tspan>
<tspan x="10" y="2634">  │ ├── generic-pool@2.1.1 </tspan>
<tspan x="10" y="2650">  │ ├── packet-reader@0.2.0 </tspan>
<tspan x="10" y="2666">  │ ├── pg-connection-string@0.1.3 </tspan>
<tspan x="10" y="2682">  │ ├─┬ pg-types@1.11.0 </tspan>
<tspan x="10" y="2698">  │ │ ├── ap@0.2.0 </tspan>
<tspan x="10" y="2714">  │ │ ├── postgres-array@1.0.2 </tspan>
<tspan x="10" y="2730">  │ │ ├── postgres-bytea@1.0.0 </tspan>
<tspan x="10" y="2746">  │ │ ├── postgres-date@1.0.3 </tspan>
<tspan x="10" y="2762">  │ │ └─┬ postgres-interval@1.0.2 </tspan>
<tspan x="10" y="2778">  │ │   └── xtend@4.0.1 </tspan>
<tspan x="10" y="2794">  │ ├─┬ pgpass@0.0.3 </tspan>
<tspan x="10" y="2810">  │ │ └─┬ split@0.3.3 </tspan>
<tspan x="10" y="2826">  │ │   └── through@2.3.8 </tspan>
<tspan x="10" y="2842">  │ └── semver@4.3.6 </tspan>
<tspan x="10" y="2858">  ├─┬ read-package-json@2.0.5 </tspan>
<tspan x="10" y="2874">  │ ├─┬ glob@7.1.1 </tspan>
<tspan x="10" y="2890">  │ │ ├── fs.realpath@1.0.0 </tspan>
<tspan x="10" y="2906">  │ │ ├─┬ inflight@1.0.6 </tspan>
<tspan x="10" y="2922">  │ │ │ └── wrappy@1.0.2 </tspan>
<tspan x="10" y="2938">  │ │ ├─┬ minimatch@3.0.3 </tspan>
<tspan x="10" y="2954">  │ │ │ └─┬ brace-expansion@1.1.7 </tspan>
<tspan x="10" y="2970">  │ │ │   ├── balanced-match@0.4.2 </tspan>
<tspan x="10" y="2986">  │ │ │   └── concat-map@0.0.1 </tspan>
<tspan x="10" y="3002">  │ │ ├── once@1.4.0 </tspan>
<tspan x="10" y="3018">  │ │ └── path-is-absolute@1.0.1 </tspan>
<tspan x="10" y="3034">  │ ├── graceful-fs@4.1.11 </tspan>
<tspan x="10" y="3050">  │ ├─┬ json-parse-helpfulerror@1.0.3 </tspan>
<tspan x="10" y="3066">  │ │ └── jju@1.3.0 </tspan>
<tspan x="10" y="3082">  │ └─┬ normalize-package-data@2.3.6 </tspan>
<tspan x="10" y="3098">  │   ├── hosted-git-info@2.4.2 </tspan>
<tspan x="10" y="3114">  │   ├─┬ is-builtin-module@1.0.0 </tspan>
<tspan x="10" y="3130">  │   │ └── builtin-modules@1.1.1 </tspan>
<tspan x="10" y="3146">  │   └─┬ validate-npm-package-license@3.0.1 </tspan>
<tspan x="10" y="3162">  │     ├─┬ spdx-correct@1.0.2 </tspan>
<tspan x="10" y="3178">  │     │ └── spdx-license-ids@1.2.2 </tspan>
<tspan x="10" y="3194">  │     └── spdx-expression-parse@1.0.4 </tspan>
<tspan x="10" y="3210">  ├─┬ request@2.81.0 </tspan>
<tspan x="10" y="3226">  │ ├── aws-sign2@0.6.0 </tspan>
<tspan x="10" y="3242">  │ ├── aws4@1.6.0 </tspan>
<tspan x="10" y="3258">  │ ├── caseless@0.12.0 </tspan>
<tspan x="10" y="3274">  │ ├─┬ combined-stream@1.0.5 </tspan>
<tspan x="10" y="3290">  │ │ └── delayed-stream@1.0.0 </tspan>
<tspan x="10" y="3306">  │ ├── extend@3.0.0 </tspan>
<tspan x="10" y="3322">  │ ├── forever-agent@0.6.1 </tspan>
<tspan x="10" y="3338">  │ ├─┬ form-data@2.1.4 </tspan>
<tspan x="10" y="3354">  │ │ └── asynckit@0.4.0 </tspan>
<tspan x="10" y="3370">  │ ├─┬ har-validator@4.2.1 </tspan>
<tspan x="10" y="3386">  │ │ ├─┬ ajv@4.11.7 </tspan>
<tspan x="10" y="3402">  │ │ │ ├── co@4.6.0 </tspan>
<tspan x="10" y="3418">  │ │ │ └─┬ json-stable-stringify@1.0.1 </tspan>
<tspan x="10" y="3434">  │ │ │   └── jsonify@0.0.0 </tspan>
<tspan x="10" y="3450">  │ │ └── har-schema@1.0.5 </tspan>
<tspan x="10" y="3466">  │ ├─┬ hawk@3.1.3 </tspan>
<tspan x="10" y="3482">  │ │ ├── boom@2.10.1 </tspan>
<tspan x="10" y="3498">  │ │ ├── cryptiles@2.0.5 </tspan>
<tspan x="10" y="3514">  │ │ ├── hoek@2.16.3 </tspan>
<tspan x="10" y="3530">  │ │ └── sntp@1.0.9 </tspan>
<tspan x="10" y="3546">  │ ├─┬ http-signature@1.1.1 </tspan>
<tspan x="10" y="3562">  │ │ ├── assert-plus@0.2.0 </tspan>
<tspan x="10" y="3578">  │ │ ├─┬ jsprim@1.4.0 </tspan>
<tspan x="10" y="3594">  │ │ │ ├── assert-plus@1.0.0 </tspan>
<tspan x="10" y="3610">  │ │ │ ├── extsprintf@1.0.2 </tspan>
<tspan x="10" y="3626">  │ │ │ ├── json-schema@0.2.3 </tspan>
<tspan x="10" y="3642">  │ │ │ └── verror@1.3.6 </tspan>
<tspan x="10" y="3658">  │ │ └─┬ sshpk@1.13.0 </tspan>
<tspan x="10" y="3674">  │ │   ├── asn1@0.2.3 </tspan>
<tspan x="10" y="3690">  │ │   ├── assert-plus@1.0.0 </tspan>
<tspan x="10" y="3706">  │ │   ├── bcrypt-pbkdf@1.0.1 </tspan>
<tspan x="10" y="3722">  │ │   ├─┬ dashdash@1.14.1 </tspan>
<tspan x="10" y="3738">  │ │   │ └── assert-plus@1.0.0 </tspan>
<tspan x="10" y="3754">  │ │   ├── ecc-jsbn@0.1.1 </tspan>
<tspan x="10" y="3770">  │ │   ├─┬ getpass@0.1.6 </tspan>
<tspan x="10" y="3786">  │ │   │ └── assert-plus@1.0.0 </tspan>
<tspan x="10" y="3802">  │ │   ├── jodid25519@1.0.2 </tspan>
<tspan x="10" y="3818">  │ │   ├── jsbn@0.1.1 </tspan>
<tspan x="10" y="3834">  │ │   └── tweetnacl@0.14.5 </tspan>
<tspan x="10" y="3850">  │ ├── is-typedarray@1.0.0 </tspan>
<tspan x="10" y="3866">  │ ├── isstream@0.1.2 </tspan>
<tspan x="10" y="3882">  │ ├── json-stringify-safe@5.0.1 </tspan>
<tspan x="10" y="3898">  │ ├── mime-types@2.1.15 </tspan>
<tspan x="10" y="3914">  │ ├── oauth-sign@0.8.2 </tspan>
<tspan x="10" y="3930">  │ ├── performance-now@0.2.0 </tspan>
<tspan x="10" y="3946">  │ ├── safe-buffer@5.0.1 </tspan>
<tspan x="10" y="3962">  │ ├── stringstream@0.0.5 </tspan>
<tspan x="10" y="3978">  │ ├─┬ tough-cookie@2.3.2 </tspan>
<tspan x="10" y="3994">  │ │ └── punycode@1.4.1 </tspan>
<tspan x="10" y="4010">  │ ├── tunnel-agent@0.6.0 </tspan>
<tspan x="10" y="4026">  │ └── uuid@3.0.1 </tspan>
<tspan x="10" y="4042">  ├── semver@2.0.11 </tspan>
<tspan x="10" y="4058">  ├─┬ socket.io@1.7.3 </tspan>
<tspan x="10" y="4074">  │ ├── debug@2.3.3 </tspan>
<tspan x="10" y="4090">  │ ├─┬ engine.io@1.8.3 </tspan>
<tspan x="10" y="4106">  │ │ ├── base64id@1.0.0 </tspan>
<tspan x="10" y="4122">  │ │ ├── debug@2.3.3 </tspan>
<tspan x="10" y="4138">  │ │ ├─┬ engine.io-parser@1.3.2 </tspan>
<tspan x="10" y="4154">  │ │ │ ├── after@0.8.2 </tspan>
<tspan x="10" y="4170">  │ │ │ ├── arraybuffer.slice@0.0.6 </tspan>
<tspan x="10" y="4186">  │ │ │ ├── base64-arraybuffer@0.1.5 </tspan>
<tspan x="10" y="4202">  │ │ │ ├── blob@0.0.4 </tspan>
<tspan x="10" y="4218">  │ │ │ └── wtf-8@1.0.0 </tspan>
<tspan x="10" y="4234">  │ │ └─┬ ws@1.1.2 </tspan>
<tspan x="10" y="4250">  │ │   ├── options@0.0.6 </tspan>
<tspan x="10" y="4266">  │ │   └── ultron@1.0.2 </tspan>
<tspan x="10" y="4282">  │ ├─┬ has-binary@0.1.7 </tspan>
<tspan x="10" y="4298">  │ │ └── isarray@0.0.1 </tspan>
<tspan x="10" y="4314">  │ ├── object-assign@4.1.0 </tspan>
<tspan x="10" y="4330">  │ ├─┬ socket.io-adapter@0.5.0 </tspan>
<tspan x="10" y="4346">  │ │ └── debug@2.3.3 </tspan>
<tspan x="10" y="4362">  │ ├─┬ socket.io-client@1.7.3 </tspan>
<tspan x="10" y="4378">  │ │ ├── backo2@1.0.2 </tspan>
<tspan x="10" y="4394">  │ │ ├── component-bind@1.0.0 </tspan>
<tspan x="10" y="4410">  │ │ ├── component-emitter@1.2.1 </tspan>
<tspan x="10" y="4426">  │ │ ├── debug@2.3.3 </tspan>
<tspan x="10" y="4442">  │ │ ├─┬ engine.io-client@1.8.3 </tspan>
<tspan x="10" y="4458">  │ │ │ ├── component-emitter@1.2.1 </tspan>
<tspan x="10" y="4474">  │ │ │ ├── component-inherit@0.0.3 </tspan>
<tspan x="10" y="4490">  │ │ │ ├── debug@2.3.3 </tspan>
<tspan x="10" y="4506">  │ │ │ ├── has-cors@1.1.0 </tspan>
<tspan x="10" y="4522">  │ │ │ ├── parsejson@0.0.3 </tspan>
<tspan x="10" y="4538">  │ │ │ ├── parseqs@0.0.5 </tspan>
<tspan x="10" y="4554">  │ │ │ ├── xmlhttprequest-ssl@1.5.3 </tspan>
<tspan x="10" y="4570">  │ │ │ └── yeast@0.1.2 </tspan>
<tspan x="10" y="4586">  │ │ ├── indexof@0.0.1 </tspan>
<tspan x="10" y="4602">  │ │ ├── object-component@0.0.3 </tspan>
<tspan x="10" y="4618">  │ │ ├─┬ parseuri@0.0.5 </tspan>
<tspan x="10" y="4634">  │ │ │ └─┬ better-assert@1.0.2 </tspan>
<tspan x="10" y="4650">  │ │ │   └── callsite@1.0.0 </tspan>
<tspan x="10" y="4666">  │ │ └── to-array@0.1.4 </tspan>
<tspan x="10" y="4682">  │ └─┬ socket.io-parser@2.3.1 </tspan>
<tspan x="10" y="4698">  │   ├── component-emitter@1.1.2 </tspan>
<tspan x="10" y="4714">  │   ├─┬ debug@2.2.0 </tspan>
<tspan x="10" y="4730">  │   │ └── ms@0.7.1 </tspan>
<tspan x="10" y="4746">  │   └── json3@3.3.2 </tspan>
<tspan x="10" y="4762">  ├─┬ stylus@0.52.0 </tspan>
<tspan x="10" y="4778">  │ ├── css-parse@1.7.0 </tspan>
<tspan x="10" y="4794">  │ ├─┬ glob@3.2.11 </tspan>
<tspan x="10" y="4810">  │ │ └─┬ minimatch@0.3.0 </tspan>
<tspan x="10" y="4826">  │ │   ├── lru-cache@2.7.3 </tspan>
<tspan x="10" y="4842">  │ │   └── sigmund@1.0.1 </tspan>
<tspan x="10" y="4858">  │ ├── sax@0.5.8 </tspan>
<tspan x="10" y="4874">  │ └── source-map@0.1.43 </tspan>
<tspan x="10" y="4890">  ├─┬ temp@0.8.3 </tspan>
<tspan x="10" y="4906">  │ ├── os-tmpdir@1.0.2 </tspan>
<tspan x="10" y="4922">  │ └── rimraf@2.2.8 </tspan>
<tspan x="10" y="4938">  ├─┬ tracer@0.8.7 </tspan>
<tspan x="10" y="4954">  │ ├─┬ dateformat@1.0.12 </tspan>
<tspan x="10" y="4970">  │ │ ├── get-stdin@4.0.1 </tspan>
<tspan x="10" y="4986">  │ │ └─┬ meow@3.7.0 </tspan>
<tspan x="10" y="5002">  │ │   ├─┬ camelcase-keys@2.1.0 </tspan>
<tspan x="10" y="5018">  │ │   │ └── camelcase@2.1.1 </tspan>
<tspan x="10" y="5034">  │ │   ├─┬ loud-rejection@1.6.0 </tspan>
<tspan x="10" y="5050">  │ │   │ ├─┬ currently-unhandled@0.4.1 </tspan>
<tspan x="10" y="5066">  │ │   │ │ └── array-find-index@1.0.2 </tspan>
<tspan x="10" y="5082">  │ │   │ └── signal-exit@3.0.2 </tspan>
<tspan x="10" y="5098">  │ │   ├── map-obj@1.0.1 </tspan>
<tspan x="10" y="5114">  │ │   ├─┬ read-pkg-up@1.0.1 </tspan>
<tspan x="10" y="5130">  │ │   │ ├─┬ find-up@1.1.2 </tspan>
<tspan x="10" y="5146">  │ │   │ │ ├── path-exists@2.1.0 </tspan>
<tspan x="10" y="5162">  │ │   │ │ └─┬ pinkie-promise@2.0.1 </tspan>
<tspan x="10" y="5178">  │ │   │ │   └── pinkie@2.0.4 </tspan>
<tspan x="10" y="5194">  │ │   │ └─┬ read-pkg@1.1.0 </tspan>
<tspan x="10" y="5210">  │ │   │   ├─┬ load-json-file@1.1.0 </tspan>
<tspan x="10" y="5226">  │ │   │   │ ├── graceful-fs@4.1.11 </tspan>
<tspan x="10" y="5242">  │ │   │   │ ├─┬ parse-json@2.2.0 </tspan>
<tspan x="10" y="5258">  │ │   │   │ │ └─┬ error-ex@1.3.1 </tspan>
<tspan x="10" y="5274">  │ │   │   │ │   └── is-arrayish@0.2.1 </tspan>
<tspan x="10" y="5290">  │ │   │   │ ├── pify@2.3.0 </tspan>
<tspan x="10" y="5306">  │ │   │   │ └─┬ strip-bom@2.0.0 </tspan>
<tspan x="10" y="5322">  │ │   │   │   └── is-utf8@0.2.1 </tspan>
<tspan x="10" y="5338">  │ │   │   └─┬ path-type@1.1.0 </tspan>
<tspan x="10" y="5354">  │ │   │     └── graceful-fs@4.1.11 </tspan>
<tspan x="10" y="5370">  │ │   ├─┬ redent@1.0.0 </tspan>
<tspan x="10" y="5386">  │ │   │ ├─┬ indent-string@2.1.0 </tspan>
<tspan x="10" y="5402">  │ │   │ │ └─┬ repeating@2.0.1 </tspan>
<tspan x="10" y="5418">  │ │   │ │   └─┬ is-finite@1.0.2 </tspan>
<tspan x="10" y="5434">  │ │   │ │     └── number-is-nan@1.0.1 </tspan>
<tspan x="10" y="5450">  │ │   │ └── strip-indent@1.0.1 </tspan>
<tspan x="10" y="5466">  │ │   └── trim-newlines@1.0.0 </tspan>
<tspan x="10" y="5482">  │ └── tinytim@0.1.1 </tspan>
<tspan x="10" y="5498">  ├── traverse@0.6.6 </tspan>
<tspan x="10" y="5514">  ├── underscore@1.8.3 </tspan>
<tspan x="10" y="5530">  └── xtend@2.0.3</tspan>
</text>
</svg>
